<svg width="100" height="100" viewBox="0 0 100 100" fill="none" xmlns="http://www.w3.org/2000/svg">
<path d="M100 50C100 77.6142 77.6142 100 50 100C22.3858 100 0 77.6142 0 50C0 22.3858 22.3858 0 50 0C72.2304 0 91.0723 14.5077 97.5743 34.5718C98.3142 36.8548 98.8943 39.2097 99.3014 41.6234C99.7608 44.3471 100 47.1456 100 50Z" fill="#59B1E3"/>
<path d="M53.1272 40.6471C53.0439 40.6471 52.9744 40.6332 52.8911 40.6332C52.4188 42.9112 51.9605 45.2724 51.4882 47.7726C50.9187 50.8423 50.4048 53.9258 49.9465 57.0371C49.6964 58.8845 49.3492 61.0513 48.9047 63.5376C48.488 66.0377 48.1408 68.4129 47.8352 70.6908C47.5296 72.9688 47.3768 74.5939 47.3768 75.5662C47.3768 76.6357 47.7519 77.4969 48.488 78.1497C49.2242 78.8025 50.2659 79.1359 51.6132 79.1359C52.8772 79.1359 53.9606 78.8164 54.8635 78.1775C55.7663 77.5385 56.2524 76.6357 56.3358 75.4412C56.5025 73.191 56.8219 70.2325 57.322 66.5795C57.822 62.9264 58.2804 59.6901 58.7387 56.9121C59.6138 51.6479 60.5722 46.4253 61.5722 41.2166C58.7665 40.9805 55.9608 40.5916 53.1272 40.661V40.6471Z" fill="white"/>
<path fill-rule="evenodd" clip-rule="evenodd" d="M97.5743 34.5718C95.1622 34.5746 92.7465 34.4695 90.3383 34.3272L78.3653 33.98C77.9142 33.9766 77.463 33.9858 77.0123 33.995C75.6312 34.0231 74.2541 34.0512 72.8927 33.7161C72.4659 33.7351 72.038 33.7918 71.6097 33.8486C70.4769 33.9987 69.3407 34.1492 68.2119 33.605C67.9086 33.605 67.6049 33.6092 67.3008 33.6134C66.0449 33.6309 64.7834 33.6484 63.5309 33.3688C59.4963 33.3219 55.4715 33.0571 51.4399 32.7919C50.697 32.743 49.9539 32.6941 49.2105 32.6466L49.0942 32.6521C48.2452 32.6925 47.4083 32.7323 46.5715 32.4799C44.2848 32.3482 41.9946 32.2166 39.7045 32.0849C37.404 31.9527 35.1036 31.8204 32.8066 31.6882C31.1318 31.6458 29.457 31.57 27.7822 31.4942C24.5123 31.3462 21.2422 31.1982 17.9723 31.2992C17.8684 31.3795 17.7405 31.394 17.6109 31.4086C17.3591 31.4371 17.1008 31.4664 17 31.9799C18.8856 32.9128 20.8544 33.3597 22.8231 33.8066C23.6389 33.9918 24.4547 34.1769 25.2645 34.3967C25.7822 34.5185 26.2999 34.6634 26.8179 34.8085C27.9541 35.1267 29.0923 35.4454 30.237 35.5218C32.4946 35.6596 34.7308 36.0327 36.9655 36.4055C38.3331 36.6337 39.7001 36.8617 41.0711 37.0357C42.4628 37.2116 43.8541 37.3901 45.2454 37.5686C52.866 38.5461 60.4843 39.5234 68.1424 40.0637C78.2264 40.786 88.3104 41.3972 98.4083 41.6055C98.706 41.6117 99.0037 41.6176 99.3014 41.6234C98.8943 39.2097 98.3142 36.8548 97.5743 34.5718Z" fill="white"/>
<path d="M30.4315 50.2172H27.4869C28.1675 49.3977 28.6536 48.8004 29.1398 48.217C29.6398 47.7031 30.1676 47.2169 30.2648 46.328C32.0011 44.0084 32.6956 41.1749 32.7372 38.1191C32.7511 36.8135 33.0428 36.6607 33.9873 36.8412C36.2514 37.2718 38.5432 37.5774 40.8211 37.8691C41.6684 37.9802 41.6684 38.3969 41.4462 39.2442C39.9044 44.939 36.9597 48.717 32.0705 49.8282C31.7788 49.8977 31.4871 50.0366 31.1955 50.1338C30.9316 50.1616 30.6677 50.1894 30.4176 50.2172H30.4315Z" fill="white"/>
</svg>
